<svg width="29" height="40" viewBox="0 0 29 40" fill="none" xmlns="http://www.w3.org/2000/svg">
<g clip-path="url(#clip0_2517_3205)">
<path fill-rule="evenodd" clip-rule="evenodd" d="M14.5011 17.4185L8.99621 22.9023L14.5011 28.3862L20.006 22.9023L14.5011 17.4185ZM3.16748 22.9023L14.5011 34.1926L25.8348 22.9023L14.5011 11.6121L3.16748 22.9023Z" fill="#66B1F1"/>
<path fill-rule="evenodd" clip-rule="evenodd" d="M14.5007 5.80634L6.08142 14.1934L14.5007 22.5804L22.92 14.1934L14.5007 5.80634ZM0.252686 14.1934L14.5007 28.3868L28.7487 14.1934L14.5007 -6.52225e-05L0.252686 14.1934Z" fill="#1C629E"/>
<path fill-rule="evenodd" clip-rule="evenodd" d="M14.4977 28.382L11.5834 31.2852L14.4977 34.1884L17.4121 31.2852L14.4977 28.382ZM5.75464 31.2852L14.4977 39.9948L23.2408 31.2852L14.4977 22.5756L5.75464 31.2852Z" fill="#FFC540"/>
<path d="M3.16748 22.9023L6.08185 19.9991L17.4155 31.2894L14.5011 34.1926L3.16748 22.9023Z" fill="#66B1F1"/>
</g>
<defs>
<clipPath id="clip0_2517_3205">
<rect width="29" height="40" fill="white"/>
</clipPath>
</defs>
</svg>
